<?xml version="1.0" encoding="utf-8"?>
<!DOCTYPE svg PUBLIC "-//W3C//DTD SVG 1.1//EN" "http://www.w3.org/Graphics/SVG/1.1/DTD/svg11.dtd">
<svg xmlns="http://www.w3.org/2000/svg" xmlns:xlink="http://www.w3.org/1999/xlink" version="1.1" viewBox="0 0 512 512" enable-background="new 0 0 512 512" width="512px" height="512px">
  <g>
    <g>
      <path d="m303.6,451.5l-250.5-250.8 20.4-129.3 126.8-18.4 250.6,251-147.3,147.5zm190.6-162l-272.3-272.5c-4.5-4.6-10.9-6.7-17.3-5.8l-151.8,22c-8.8,1.3-15.8,8.2-17.2,17l-24.4,154.4c-1,6.4 1.1,13 5.7,17.6l272.2,272.6c9.4,9.4 21.8,7 28.8,0l176.2-176.4c7.4-7.4 10.8-18.1 0.1-28.9z" fill="#FFFFFF"/>
      <path d="m136.9,112.4c-12.2,0-22.1,9.9-22.1,22.1 0,12.2 9.9,22.1 22.1,22.1 12.2,0 22.1-9.9 22.1-22.1-0.1-12.2-9.9-22.1-22.1-22.1z" fill="#FFFFFF"/>
    </g>
  </g>
</svg>
